<svg width="24" height="24" viewBox="0 0 24 24" fill="none" xmlns="http://www.w3.org/2000/svg">
<g clip-path="url(#clip0_4_1147)">
<path d="M9.24992 21.1667C9.75618 21.1667 10.1666 20.7563 10.1666 20.25C10.1666 19.7438 9.75618 19.3334 9.24992 19.3334C8.74366 19.3334 8.33325 19.7438 8.33325 20.25C8.33325 20.7563 8.74366 21.1667 9.24992 21.1667Z" stroke="#2C2D35" stroke-width="2" stroke-linecap="round" stroke-linejoin="round"/>
<path d="M19.3334 21.1667C19.8397 21.1667 20.2501 20.7563 20.2501 20.25C20.2501 19.7438 19.8397 19.3334 19.3334 19.3334C18.8272 19.3334 18.4167 19.7438 18.4167 20.25C18.4167 20.7563 18.8272 21.1667 19.3334 21.1667Z" stroke="#2C2D35" stroke-width="2" stroke-linecap="round" stroke-linejoin="round"/>
<path d="M1.91675 1.91663H5.58341L8.04008 14.1908C8.12391 14.6128 8.3535 14.9919 8.68866 15.2617C9.02383 15.5315 9.44322 15.6749 9.87341 15.6666H18.7834C19.2136 15.6749 19.633 15.5315 19.9682 15.2617C20.3033 14.9919 20.5329 14.6128 20.6167 14.1908L22.0834 6.49996H6.50008" stroke="#2C2D35" stroke-width="2" stroke-linecap="round" stroke-linejoin="round"/>
<path d="M8.5 15C12.0899 15 15 12.0899 15 8.5C15 4.91015 12.0899 2 8.5 2C4.91015 2 2 4.91015 2 8.5C2 12.0899 4.91015 15 8.5 15Z" fill="#598D66"/>
<path d="M10.7293 9.79V11H6.6693V9.79H8.0893V6.76C8.0093 6.86 7.87263 6.96667 7.6793 7.08C7.49263 7.19333 7.28596 7.29 7.0593 7.37C6.8393 7.45 6.64263 7.49 6.4693 7.49V6.24C6.5893 6.24 6.73263 6.20333 6.8993 6.13C7.07263 6.05 7.24263 5.95667 7.4093 5.85C7.58263 5.74333 7.7293 5.64 7.8493 5.54C7.97596 5.43333 8.05596 5.35 8.0893 5.29H9.4593V9.79H10.7293Z" fill="white"/>
</g>
<defs>
<clipPath id="clip0_4_1147">
<rect width="22" height="22" fill="white" transform="translate(1 1)"/>
</clipPath>
</defs>
</svg>
